<?xml version="1.0" encoding="UTF-8" standalone="no"?>
<!DOCTYPE svg PUBLIC "-//W3C//DTD SVG 1.1//EN" "http://www.w3.org/Graphics/SVG/1.1/DTD/svg11.dtd">
<svg width="100%" height="100%" viewBox="0 0 64 64" version="1.1" xmlns="http://www.w3.org/2000/svg" xmlns:xlink="http://www.w3.org/1999/xlink" xml:space="preserve" xmlns:serif="http://www.serif.com/" style="fill-rule:evenodd;clip-rule:evenodd;stroke-linejoin:round;stroke-miterlimit:2;">
    <g transform="matrix(0.931539,0,0,1,0.222634,0)">
        <path d="M3.411,21.553C3.133,21.634 2.837,21.491 2.749,21.232C2.661,20.974 2.815,20.697 3.093,20.615C7.732,19.037 12.656,17.79 17.33,16.946C23.025,15.918 28.321,15.501 32.209,15.62C36.83,15.846 41.764,16.621 46.254,19.106C49.958,21.155 53.337,24.369 56.039,29.24C57.815,32.513 58.832,36.293 59.324,39.996C60.444,48.42 58.988,56.366 58.988,56.366C58.904,56.915 58.357,57.297 57.768,57.219C57.178,57.14 56.768,56.631 56.852,56.082C56.852,56.082 57.588,49.991 56.719,42.984C56.209,38.866 55.149,34.421 52.961,30.76C50.526,26.588 47.519,23.913 44.319,22.124C40.357,19.908 36.063,19.054 31.983,18.74C28.279,18.387 23.201,18.523 17.685,19.106C13.037,19.596 8.098,20.381 3.411,21.553Z" style="fill:rgb(32,32,32);"/>
        <g transform="matrix(1.45214,0.124994,-0.124994,1.45214,-19.1989,-31.6262)">
            <path d="M53.916,52.563L53.849,52.486L54.017,52.359L54.084,52.437C54.084,52.437 55.594,53.653 56.855,54.803C57.248,55.161 57.603,55.514 57.886,55.807C58.149,55.527 58.47,55.191 58.818,54.846C59.995,53.68 61.414,52.44 61.414,52.44L61.479,52.36L61.651,52.479L61.586,52.56C61.586,52.56 60.707,54.175 59.837,55.554C59.182,56.59 58.54,57.459 58.54,57.459C58.385,57.651 58.145,57.766 57.889,57.772C57.634,57.778 57.391,57.673 57.231,57.488C57.231,57.488 56.976,57.203 56.631,56.753C56.385,56.431 56.092,56.033 55.8,55.597C54.867,54.201 53.916,52.563 53.916,52.563Z" style="fill:rgb(32,32,32);"/>
        </g>
    </g>
</svg>
